<svg width="16" height="16" viewBox="0 0 16 16" fill="none" xmlns="http://www.w3.org/2000/svg">
<rect width="16" height="16" fill="#F331A6"/>
<path d="M5.5 3C0.000143528 3.50008 -0.000113696 0.5 -0.000113696 0.5L-0.00012207 16H15.9999C15.9999 16 7 14.5 13.5 8.5C20 2.5 10.9999 2.49992 5.5 3Z" fill="#317FF3"/>
<path d="M3.86245 4.465C3.36379 4.641 2.98245 4.91967 2.71845 5.301C2.46179 5.675 2.33345 6.12967 2.33345 6.665C2.33345 6.89967 2.35912 7.116 2.41045 7.314C2.46179 7.50467 2.53512 7.66233 2.63045 7.787C2.16112 7.787 1.81279 7.69167 1.58545 7.501C1.36545 7.303 1.25545 7.00233 1.25545 6.599C1.25545 6.08567 1.40579 5.609 1.70645 5.169C2.00712 4.72167 2.41412 4.366 2.92745 4.102C3.44079 3.838 3.99812 3.706 4.59945 3.706C4.76812 3.706 4.91479 3.717 5.03945 3.739C5.16412 3.761 5.30712 3.80133 5.46845 3.86L6.78845 9.745L8.02045 3.772H9.08745L7.29445 12H5.77645L4.50045 6.544L3.24645 12H2.20145L3.86245 4.465ZM11.2321 12.198C10.7701 12.198 10.3631 12.1173 10.0111 11.956C9.65911 11.7947 9.38778 11.571 9.19711 11.285C9.00644 10.9917 8.91111 10.6543 8.91111 10.273C8.91111 9.95033 8.97711 9.657 9.10911 9.393C9.24844 9.129 9.43178 8.92 9.65911 8.766C9.89378 8.612 10.1504 8.535 10.4291 8.535C10.6858 8.535 10.9021 8.601 11.0781 8.733C11.2541 8.85767 11.3641 9.03367 11.4081 9.261C11.0268 9.261 10.7224 9.36367 10.4951 9.569C10.2678 9.767 10.1541 10.0383 10.1541 10.383C10.1541 10.6983 10.2494 10.9513 10.4401 11.142C10.6308 11.3327 10.8838 11.428 11.1991 11.428C11.5878 11.428 11.9068 11.2997 12.1561 11.043C12.4128 10.779 12.5411 10.449 12.5411 10.053C12.5411 9.70833 12.4458 9.382 12.2551 9.074C12.0644 8.766 11.7784 8.392 11.3971 7.952C11.0011 7.49733 10.7004 7.10867 10.4951 6.786C10.2971 6.456 10.1981 6.09667 10.1981 5.708C10.1981 5.32667 10.3044 4.98567 10.5171 4.685C10.7298 4.377 11.0231 4.135 11.3971 3.959C11.7711 3.783 12.1928 3.695 12.6621 3.695C13.2561 3.695 13.7291 3.83433 14.0811 4.113C14.4404 4.39167 14.6201 4.76567 14.6201 5.235C14.6201 5.543 14.5431 5.79233 14.3891 5.983C14.2351 6.17367 14.0334 6.269 13.7841 6.269C13.5054 6.269 13.2818 6.15533 13.1131 5.928C13.2524 5.82533 13.3624 5.68967 13.4431 5.521C13.5238 5.35233 13.5641 5.17633 13.5641 4.993C13.5641 4.75833 13.4944 4.57133 13.3551 4.432C13.2158 4.29267 13.0251 4.223 12.7831 4.223C12.4898 4.223 12.2478 4.32933 12.0571 4.542C11.8738 4.74733 11.7821 5.01133 11.7821 5.334C11.7821 5.62733 11.8664 5.90233 12.0351 6.159C12.2038 6.40833 12.4678 6.731 12.8271 7.127C13.1204 7.44233 13.3551 7.71367 13.5311 7.941C13.7144 8.16833 13.8684 8.43233 13.9931 8.733C14.1251 9.02633 14.1911 9.34533 14.1911 9.69C14.1911 10.1593 14.0591 10.5847 13.7951 10.966C13.5384 11.3473 13.1828 11.648 12.7281 11.868C12.2808 12.088 11.7821 12.198 11.2321 12.198Z" fill="white"/>
</svg>
